<?xml version="1.0" encoding="UTF-8" standalone="no"?>
<svg
   xmlns:dc="http://purl.org/dc/elements/1.1/"
   xmlns:cc="http://creativecommons.org/ns#"
   xmlns:rdf="http://www.w3.org/1999/02/22-rdf-syntax-ns#"
   xmlns:svg="http://www.w3.org/2000/svg"
   xmlns="http://www.w3.org/2000/svg"
   xmlns:sodipodi="http://sodipodi.sourceforge.net/DTD/sodipodi-0.dtd"
   xmlns:inkscape="http://www.inkscape.org/namespaces/inkscape"
   viewBox="0 0 90 90"
   id="svg2"
   version="1.1"
   inkscape:version="0.91 r13725"
   sodipodi:docname="pine-tree.svg">
  <metadata
     id="metadata21">
    <rdf:RDF>
      <cc:Work
         rdf:about="">
        <dc:format>image/svg+xml</dc:format>
        <dc:type
           rdf:resource="http://purl.org/dc/dcmitype/StillImage" />
      </cc:Work>
    </rdf:RDF>
  </metadata>
  <sodipodi:namedview
     pagecolor="#ffffff"
     bordercolor="#666666"
     borderopacity="1"
     objecttolerance="10"
     gridtolerance="10"
     guidetolerance="10"
     inkscape:pageopacity="0"
     inkscape:pageshadow="2"
     inkscape:window-width="640"
     inkscape:window-height="480"
     id="namedview19"
     showgrid="false"
     inkscape:zoom="1.8541911"
     inkscape:cx="6.4702292"
     inkscape:cy="15.789567"
     inkscape:window-x="0"
     inkscape:window-y="24"
     inkscape:window-maximized="0"
     inkscape:current-layer="svg2" />
  <defs
     id="defs4">
    <style
       id="style6">.cls-1{fill:#754c49;}.cls-2{fill:#9cc925;}.cls-3{fill:#7ba60d;}.cls-4{fill:#668a0b;}</style>
  </defs>
  <title
     id="title8">pine-tree</title>
  <path
     style="fill:#754c49"
     inkscape:connector-curvature="0"
     id="path11"
     d="m 48.26,85 -6.52,0 A 1.7,1.7 0 0 1 40,83.31 l 0,-13.1 a 1.7,1.7 0 0 1 1.71,-1.69 l 6.51,0 A 1.7,1.7 0 0 1 50,70.21 l 0,13.1 A 1.7,1.7 0 0 1 48.26,85 Z"
     class="cls-1" />
  <path
     style="fill:#9cc925"
     inkscape:connector-curvature="0"
     id="path13"
     d="M 20.31,69.28 43.6,36.34 a 1.71,1.71 0 0 1 2.79,0 l 23.3,32.94"
     class="cls-2" />
  <path
     style="fill:#7ba60d"
     inkscape:connector-curvature="0"
     id="path15"
     d="M 23.15,48.22 43.6,19.29 a 1.71,1.71 0 0 1 2.79,0 l 20.46,28.93"
     class="cls-3" />
  <path
     style="fill:#668a0b"
     inkscape:connector-curvature="0"
     id="path17"
     d="M 28.47,27.12 43.6,5.72 a 1.71,1.71 0 0 1 2.79,0 l 15.13,21.4"
     class="cls-4" />
</svg>
