<?xml version="1.0" encoding="UTF-8" standalone="no"?>
<!-- Created with Inkscape (http://www.inkscape.org/) -->

<svg
   xmlns:dc="http://purl.org/dc/elements/1.1/"
   xmlns:cc="http://creativecommons.org/ns#"
   xmlns:rdf="http://www.w3.org/1999/02/22-rdf-syntax-ns#"
   xmlns:svg="http://www.w3.org/2000/svg"
   xmlns="http://www.w3.org/2000/svg"
   xmlns:sodipodi="http://sodipodi.sourceforge.net/DTD/sodipodi-0.dtd"
   xmlns:inkscape="http://www.inkscape.org/namespaces/inkscape"
   width="1440"
   height="900"
   viewBox="0 0 1440 900.00001"
   id="svg2"
   version="1.1"
   inkscape:version="0.91 r13725"
   sodipodi:docname="scrolling_clouds.svg"
   inkscape:export-filename="/home/mwerezak/Projects/Projects/heavy_gear/game/icons/terrain/scrolling_clouds.png"
   inkscape:export-xdpi="90"
   inkscape:export-ydpi="90">
  <defs
     id="defs4" />
  <sodipodi:namedview
     id="base"
     pagecolor="#ffffff"
     bordercolor="#666666"
     borderopacity="1.0"
     inkscape:pageopacity="0.0"
     inkscape:pageshadow="2"
     inkscape:zoom="0.7"
     inkscape:cx="806.40532"
     inkscape:cy="911.60142"
     inkscape:document-units="px"
     inkscape:current-layer="layer1"
     showgrid="false"
     units="px"
     width="1440px"
     inkscape:window-width="838"
     inkscape:window-height="973"
     inkscape:window-x="840"
     inkscape:window-y="24"
     inkscape:window-maximized="0" />
  <metadata
     id="metadata7">
    <rdf:RDF>
      <cc:Work
         rdf:about="">
        <dc:format>image/svg+xml</dc:format>
        <dc:type
           rdf:resource="http://purl.org/dc/dcmitype/StillImage" />
        <dc:title></dc:title>
      </cc:Work>
    </rdf:RDF>
  </metadata>
  <g
     inkscape:label="Layer 1"
     inkscape:groupmode="layer"
     id="layer1"
     transform="translate(0,-152.36218)">
    <path
       style="fill:#000000;fill-opacity:1;stroke:none;stroke-width:3.6329999;stroke-linecap:butt;stroke-linejoin:miter;stroke-miterlimit:4;stroke-dasharray:0, 3.63299990000000017, 7.26599979000000040, 10.89899969000000013, 14.53199958999999986, 18.16499948999999958, 21.79799938000000026, 25.43099928000000176, 29.06399917999999971, 32.69699906999999683, 36.32999896999999834, 39.96299886999999984, 43.59599876000000052, 47.22899866000000202, 50.86199856000000352;stroke-dashoffset:0;stroke-opacity:1"
       d="m 369.41106,429.63491 179.97982,0 c -0.39508,0.8209 40.51057,-0.32139 55.26446,-8.74354 22.54845,-12.49453 12.72882,-17.42844 -1.72382,-15.7948 22.47714,-18.5853 -13.88184,-21.28901 -19.48342,-18.61529 -1.25936,-12.10939 -20.32466,-8.1084 -42.49255,-4.23074 -6.16453,-8.02894 -27.56917,-9.49771 -58.28362,0 -21.52741,-5.59352 -75.0944,7.902 -81.67625,20.02553 -35.3792,-2.38363 -72.45078,18.3164 -52.49002,26.23064 z"
       id="path4140"
       inkscape:connector-curvature="0"
       sodipodi:nodetypes="cccccccccc" />
    <path
       style="fill:#e0e0e0;fill-opacity:1;stroke:none;stroke-width:3.6329999;stroke-linecap:butt;stroke-linejoin:miter;stroke-miterlimit:4;stroke-dasharray:0, 3.6329999, 7.26599979, 10.89899969, 14.53199959, 18.16499949, 21.79799938, 25.43099928, 29.06399918, 32.69699907, 36.32999897, 39.96299887, 43.59599876, 47.22899866, 50.86199856;stroke-dashoffset:0;stroke-opacity:1"
       d="m 96.731391,-202.82153 389.918879,0 c 1.47002,2.94005 86.85388,-1.15103 94.95434,-31.31473 13.44849,-44.74873 -21.80504,-62.41938 -48.48733,-56.56854 -3.96354,-66.56267 -90.39441,-76.2459 -94.95433,-66.67007 -37.03893,-43.36939 -67.00679,-29.03999 -104.04571,-15.15228 -36.1043,-28.75541 -86.63815,-34.01575 -126.26907,-10e-6 -62.48682,-20.03298 -140.299499,28.30079 -120.208149,71.72084 -83.4013596,-8.53694 -105.06419,65.5996 -39.39595,93.94418 z"
       id="path4140-3"
       inkscape:connector-curvature="0"
       sodipodi:nodetypes="cccccccccc" />
    <path
       style="fill:#000000;fill-opacity:1;stroke:none;stroke-width:3.6329999;stroke-linecap:butt;stroke-linejoin:miter;stroke-miterlimit:4;stroke-dasharray:0, 3.63299990000000017, 7.26599979000000040, 10.89899969000000013, 14.53199958999999986, 18.16499948999999958, 21.79799938000000026, 25.43099928000000176, 29.06399917999999971, 32.69699906999999683, 36.32999896999999834, 39.96299886999999984, 43.59599876000000052, 47.22899866000000202, 50.86199856000000352;stroke-dashoffset:0;stroke-opacity:1"
       d="m 727.2951,547.01605 248.71215,0 c -0.54595,1.13439 55.98115,-0.44412 76.36935,-12.0826 31.1595,-17.26606 17.5898,-24.08417 -2.3821,-21.82666 31.0609,-25.68283 -19.1832,-29.41905 -26.9239,-25.72427 -1.7403,-16.73383 -28.08643,-11.20491 -58.72004,-5.84641 -8.5187,-11.09511 -38.09753,-13.12478 -80.5415,0 -29.74849,-7.72963 -103.77213,10.91969 -112.86751,27.67306 -48.89013,-3.29391 -100.11895,25.31123 -72.53539,36.24783 z"
       id="path4140-6"
       inkscape:connector-curvature="0"
       sodipodi:nodetypes="cccccccccc" />
    <path
       style="fill:#000000;fill-opacity:1;stroke:none;stroke-width:3.6329999;stroke-linecap:butt;stroke-linejoin:miter;stroke-miterlimit:4;stroke-dasharray:0, 3.63299990000000017, 7.26599979000000040, 10.89899969000000013, 14.53199958999999986, 18.16499948999999958, 21.79799938000000026, 25.43099928000000176, 29.06399917999999971, 32.69699906999999683, 36.32999896999999834, 39.96299886999999984, 43.59599876000000052, 47.22899866000000202, 50.86199856000000352;stroke-dashoffset:0;stroke-opacity:1"
       d="m 57.853321,609.20393 170.202689,0 c -0.37364,0.77631 38.30989,-0.30393 52.26234,-8.26856 21.3235,-11.81578 12.03726,-16.48166 -1.63023,-14.93677 21.25609,-17.57568 -13.12769,-20.13251 -18.42499,-17.60404 -1.19095,-11.45156 -19.22054,-7.66792 -40.18422,-4.00091 -5.82965,-7.59278 -26.07149,-8.98176 -55.11745,0 -20.35796,-5.28966 -71.015004,7.47274 -77.239301,18.93767 -33.457278,-2.25414 -68.515005,17.32139 -49.638581,24.8057 z"
       id="path4140-6-7"
       inkscape:connector-curvature="0"
       sodipodi:nodetypes="cccccccccc" />
    <path
       style="fill:#e0e0e0;fill-opacity:1;stroke:none;stroke-width:3.6329999;stroke-linecap:butt;stroke-linejoin:miter;stroke-miterlimit:4;stroke-dasharray:0, 3.6329999, 7.26599979, 10.89899969, 14.53199959, 18.16499949, 21.79799938, 25.43099928, 29.06399918, 32.69699907, 36.32999897, 39.96299887, 43.59599876, 47.22899866, 50.86199856;stroke-dashoffset:0;stroke-opacity:1"
       d="m 868.1107,-249.0957 389.9189,0 c 1.47,2.94005 86.8539,-1.15103 94.9543,-31.31473 13.4485,-44.74873 -21.805,-62.41938 -48.4873,-56.56854 -3.9636,-66.56267 -57.5373,-60.53161 -62.0972,-50.95578 -54.5769,-37.74925 -158.8749,-28.90396 -196.0291,1.99056 -62.48678,-20.03298 -136.01375,-4.55635 -115.9224,38.8637 -83.40136,-8.53694 -176.49276,65.5996 -110.82452,93.94418 z"
       id="path4140-3-3"
       inkscape:connector-curvature="0"
       sodipodi:nodetypes="ccccccccc" />
    <path
       style="fill:#000000;fill-opacity:1;stroke:none;stroke-width:3.6329999;stroke-linecap:butt;stroke-linejoin:miter;stroke-miterlimit:4;stroke-dasharray:0, 3.63299990000000017, 7.26599979000000040, 10.89899969000000013, 14.53199958999999986, 18.16499948999999958, 21.79799938000000026, 25.43099928000000176, 29.06399917999999971, 32.69699906999999683, 36.32999896999999834, 39.96299886999999984, 43.59599876000000052, 47.22899866000000202, 50.86199856000000352;stroke-dashoffset:0;stroke-opacity:1"
       d="m 541.43546,769.50363 253.57286,0 c -0.5465,1.23826 57.07122,-0.48477 77.75388,-13.18869 31.61415,-18.84667 17.71839,-26.28894 -2.62369,-23.82477 31.43841,-28.03395 -6.48385,-25.49387 -14.34286,-21.46086 -16.20126,-15.8987 -88.54886,-12.17336 -128.49927,0.83836 -30.39896,-8.43721 -86.1243,-1.91898 -95.24774,16.36808 -49.87503,-3.59548 -148.301,27.62834 -120.08064,39.56611 z"
       id="path4140-3-3-5"
       inkscape:connector-curvature="0"
       sodipodi:nodetypes="ccccccccc" />
    <path
       style="fill:#000000;fill-opacity:1;stroke:none;stroke-width:3.6329999;stroke-linecap:butt;stroke-linejoin:miter;stroke-miterlimit:4;stroke-dasharray:0, 3.63299990000000017, 7.26599979000000040, 10.89899969000000013, 14.53199958999999986, 18.16499948999999958, 21.79799938000000026, 25.43099928000000176, 29.06399917999999971, 32.69699906999999683, 36.32999896999999834, 39.96299886999999984, 43.59599876000000052, 47.22899866000000202, 50.86199856000000352;stroke-dashoffset:0;stroke-opacity:1"
       d="m 244.50897,928.27278 170.20269,0 c -0.37364,0.77631 38.30989,-0.30393 52.26234,-8.26856 21.3235,-11.81578 12.03726,-16.48166 -1.63023,-14.93677 21.25609,-17.57568 -13.12769,-20.13251 -18.42499,-17.60404 -1.19095,-11.45156 -19.22054,-7.66792 -40.18422,-4.00091 -5.82965,-7.59278 -26.07149,-8.98176 -55.11745,0 -20.35796,-5.28966 -71.01501,7.47274 -77.2393,18.93767 -33.45728,-2.25414 -68.51501,17.32139 -49.63858,24.8057 z"
       id="path4140-6-7-6"
       inkscape:connector-curvature="0"
       sodipodi:nodetypes="cccccccccc" />
    <path
       style="fill:#000000;fill-opacity:1;stroke:none;stroke-width:3.6329999;stroke-linecap:butt;stroke-linejoin:miter;stroke-miterlimit:4;stroke-dasharray:0, 3.63299990000000017, 7.26599979000000040, 10.89899969000000013, 14.53199958999999986, 18.16499948999999958, 21.79799938000000026, 25.43099928000000176, 29.06399917999999971, 32.69699906999999683, 36.32999896999999834, 39.96299886999999984, 43.59599876000000052, 47.22899866000000202, 50.86199856000000352;stroke-dashoffset:0;stroke-opacity:1"
       d="m 1054.8544,273.92161 170.2026,0 c -0.3736,0.77631 38.3099,-0.30393 52.2624,-8.26856 21.3235,-11.81578 12.0372,-16.48166 -1.6302,-14.93677 21.256,-17.57568 -13.1277,-20.13251 -18.425,-17.60404 -1.191,-11.45156 -19.2206,-7.66792 -40.1843,-4.00091 -5.8296,-7.59278 -26.0714,-8.98176 -55.1174,0 -20.358,-5.28966 -71.015,7.47274 -77.2393,18.93767 -33.4573,-2.25414 -68.515,17.32139 -49.6386,24.8057 z"
       id="path4140-6-7-2"
       inkscape:connector-curvature="0"
       sodipodi:nodetypes="cccccccccc" />
    <path
       style="fill:#000000;fill-opacity:1;stroke:none;stroke-width:3.6329999;stroke-linecap:butt;stroke-linejoin:miter;stroke-miterlimit:4;stroke-dasharray:0, 3.63299990000000017, 7.26599979000000040, 10.89899969000000013, 14.53199958999999986, 18.16499948999999958, 21.79799938000000026, 25.43099928000000176, 29.06399917999999971, 32.69699906999999683, 36.32999896999999834, 39.96299886999999984, 43.59599876000000052, 47.22899866000000202, 50.86199856000000352;stroke-dashoffset:0;stroke-opacity:1"
       d="m 45.100355,269.53337 253.572855,0 c -0.5465,1.23826 57.07122,-0.48477 77.75388,-13.18869 31.61415,-18.84667 17.71839,-26.28894 -2.62369,-23.82477 31.43841,-28.03395 -6.48385,-25.49387 -14.34286,-21.46086 -16.20126,-15.8987 -88.54886,-12.17336 -128.49927,0.83836 -30.39896,-8.43721 -86.12429,-1.91898 -95.24773,16.36808 -49.875035,-3.59548 -148.301005,27.62834 -120.080645,39.56611 z"
       id="path4140-3-3-5-1"
       inkscape:connector-curvature="0"
       sodipodi:nodetypes="ccccccccc" />
    <path
       style="fill:#000000;fill-opacity:1;stroke:none;stroke-width:3.6329999;stroke-linecap:butt;stroke-linejoin:miter;stroke-miterlimit:4;stroke-dasharray:0, 3.63299990000000017, 7.26599979000000040, 10.89899969000000013, 14.53199958999999986, 18.16499948999999958, 21.79799938000000026, 25.43099928000000176, 29.06399917999999971, 32.69699906999999683, 36.32999896999999834, 39.96299886999999984, 43.59599876000000052, 47.22899866000000202, 50.86199856000000352;stroke-dashoffset:0;stroke-opacity:1"
       d="m 1154.6786,762.09234 179.9798,0 c -0.395,0.8209 40.5106,-0.32139 55.2645,-8.74354 22.5485,-12.49453 12.7288,-17.42844 -1.7238,-15.7948 22.4771,-18.5853 -13.8819,-21.28901 -19.4834,-18.61529 -1.2594,-12.10939 -20.3247,-8.1084 -42.4926,-4.23074 -6.1645,-8.02894 -27.5692,-9.49771 -58.2836,0 -21.5274,-5.59352 -75.0944,7.902 -81.6763,20.02553 -35.3792,-2.38363 -72.4507,18.3164 -52.49,26.23064 z"
       id="path4140-2"
       inkscape:connector-curvature="0"
       sodipodi:nodetypes="cccccccccc" />
    <path
       style="fill:#000000;fill-opacity:1;stroke:none;stroke-width:3.6329999;stroke-linecap:butt;stroke-linejoin:miter;stroke-miterlimit:4;stroke-dasharray:0, 3.63299990000000017, 7.26599979000000040, 10.89899969000000013, 14.53199958999999986, 18.16499948999999958, 21.79799938000000026, 25.43099928000000176, 29.06399917999999971, 32.69699906999999683, 36.32999896999999834, 39.96299886999999984, 43.59599876000000052, 47.22899866000000202, 50.86199856000000352;stroke-dashoffset:0;stroke-opacity:1"
       d="m 934.99619,952.06107 170.20271,0 c -0.3737,0.77631 38.3099,-0.30393 52.2623,-8.26856 21.3235,-11.81578 12.0373,-16.48166 -1.6302,-14.93677 21.2561,-17.57568 -13.1277,-20.13251 -18.425,-17.60404 -1.191,-11.45156 -19.2205,-7.66792 -40.1842,-4.00091 -5.8297,-7.59278 -26.0715,-8.98176 -55.1175,0 -20.3579,-5.28966 -71.01498,7.47274 -77.23927,18.93767 -33.45728,-2.25414 -68.51501,17.32139 -49.63858,24.8057 z"
       id="path4140-6-7-7"
       inkscape:connector-curvature="0"
       sodipodi:nodetypes="cccccccccc" />
    <path
       style="fill:#000000;fill-opacity:1;stroke:none;stroke-width:3.6329999;stroke-linecap:butt;stroke-linejoin:miter;stroke-miterlimit:4;stroke-dasharray:0, 3.63299990000000017, 7.26599979000000040, 10.89899969000000013, 14.53199958999999986, 18.16499948999999958, 21.79799938000000026, 25.43099928000000176, 29.06399917999999971, 32.69699906999999683, 36.32999896999999834, 39.96299886999999984, 43.59599876000000052, 47.22899866000000202, 50.86199856000000352;stroke-dashoffset:0;stroke-opacity:1"
       d="m 1245.6282,457.17504 137.1971,0 c -0.3011,0.62577 30.8809,-0.245 42.1278,-6.66514 17.1884,-9.52448 9.7029,-13.28555 -1.3141,-12.04025 17.1341,-14.16742 -10.582,-16.22843 -14.8521,-14.19028 -0.96,-9.23089 -15.4933,-6.18096 -32.3917,-3.22506 -4.6992,-6.1204 -21.0158,-7.24003 -44.4291,0 -16.4103,-4.26389 -57.244,6.02364 -62.2612,15.2653 -26.9694,-1.81701 -55.2286,13.96245 -40.0128,19.99542 z"
       id="path4140-6-7-0"
       inkscape:connector-curvature="0"
       sodipodi:nodetypes="cccccccccc" />
    <path
       style="fill:#000000;fill-opacity:1;stroke:none;stroke-width:3.6329999;stroke-linecap:butt;stroke-linejoin:miter;stroke-miterlimit:4;stroke-dasharray:0, 3.6329999, 7.26599979, 10.89899969, 14.53199959, 18.16499949, 21.79799938, 25.43099928, 29.06399918, 32.69699907, 36.32999897, 39.96299887, 43.59599876, 47.22899866, 50.86199856;stroke-dashoffset:0;stroke-opacity:1"
       d="m 689.57553,186.65253 105.72202,0 c -0.22785,0.51627 23.79468,-0.20211 32.41789,-5.49875 13.18087,-7.85774 7.38732,-10.96064 -1.0939,-9.93325 13.10761,-11.68818 -2.7033,-10.62915 -5.97996,-8.94767 -6.75478,-6.62864 -36.91863,-5.07543 -53.57514,0.34954 -12.67422,-3.51772 -35.90776,-0.80008 -39.7116,6.82433 -20.79437,-1.49906 -61.83106,11.51908 -50.06516,16.49628 z"
       id="path4140-3-3-5-9"
       inkscape:connector-curvature="0"
       sodipodi:nodetypes="ccccccccc" />
  </g>
</svg>
